{"title":"Jhoom Jhoom Ta (Players) - H.264 - 720p DVDRip ~~~AbhinavRocks {","uid":6931956,"size":77894219,"categoryP":"video","categoryS":"music_videos","magnet":"?xt=urn:btih:76f0072337c729b2296a76805e1b59a1820733f5&amp;dn=Jhoom+Jhoom+Ta+%28Players%29+-+H.264+-+720p+DVDRip+%7E%7E%7EAbhinavRocks+%7B&amp;tr=udp%3A%2F%2Ftracker.openbittorrent.com%3A80&amp;tr=udp%3A%2F%2Fopen.demonii.com%3A1337&amp;tr=udp%3A%2F%2Ftracker.coppersurfer.tk%3A6969&amp;tr=udp%3A%2F%2Fexodus.desync.com%3A6969","seeders":1,"leechers":0,"uploader":"AbhiHKRG","files":6,"time":1325689195,"description":"COVER :: &lt;a href=&quot;\nhttp://i.minus.com/iQqsERKgZ3GM7.png&quot; rel=&quot;nofollow&quot; target=&quot;_NEW&quot;&gt;\nhttp://i.minus.com/iQqsERKgZ3GM7.png&lt;/a&gt;\n\n\nSCREEN :: &lt;a href=&quot;\nhttp://i.minus.com/ibmFZEKcoffMuV.png&quot; rel=&quot;nofollow&quot; target=&quot;_NEW&quot;&gt;\nhttp://i.minus.com/ibmFZEKcoffMuV.png&lt;/a&gt;\n &lt;a href=&quot;\nhttp://i.minus.com/ibsINbar8MXE69.png&quot; rel=&quot;nofollow&quot; target=&quot;_NEW&quot;&gt;\nhttp://i.minus.com/ibsINbar8MXE69.png&lt;/a&gt;\n &lt;a href=&quot;\nhttp://i.minus.com/ibsml1Zj6cZSlY.png&quot; rel=&quot;nofollow&quot; target=&quot;_NEW&quot;&gt;\nhttp://i.minus.com/ibsml1Zj6cZSlY.png&lt;/a&gt;\n &lt;a href=&quot;\nhttp://i.minus.com/ibzCojiGYL1F2C.png&quot; rel=&quot;nofollow&quot; target=&quot;_NEW&quot;&gt;\nhttp://i.minus.com/ibzCojiGYL1F2C.png&lt;/a&gt;\n &lt;a href=&quot;\nhttp://i.minus.com/io23cHGi5zi8r.png&quot; rel=&quot;nofollow&quot; target=&quot;_NEW&quot;&gt;\nhttp://i.minus.com/io23cHGi5zi8r.png&lt;/a&gt;\n &lt;a href=&quot;\nhttp://i.minus.com/ibzmXnlFRmzfjC.png&quot; rel=&quot;nofollow&quot; target=&quot;_NEW&quot;&gt;\nhttp://i.minus.com/ibzmXnlFRmzfjC.png&lt;/a&gt;\n &lt;a href=&quot;\nhttp://i.minus.com/iYpJZAzOTrmgL.png&quot; rel=&quot;nofollow&quot; target=&quot;_NEW&quot;&gt;\nhttp://i.minus.com/iYpJZAzOTrmgL.png&lt;/a&gt;\n\n\nGeneral ::\nFormat                           : AVI\nFormat/Info                      : Audio Video Interleave\nFile size                        : 74.3 MiB\nDuration                         : 1mn 49s\nOverall bit rate                 : 5 681 Kbps\n\n\nVideo Info ::\nID                               : 0\nFormat                           : AVC\nFormat/Info                      : Advanced Video Codec\nFormat profile                   : &lt;a class=&quot;__cf_email__&quot; href=&quot;/cdn-cgi/l/email-protection&quot; data-cfemail=&quot;7a32131d123a364f544b&quot;&gt;[email&amp;#160;protected]&lt;/a&gt;&lt;script cf-hash='f9e31' type=&quot;text/javascript&quot;&gt;\n/* &lt;![CDATA[ */!function(){try{var t=&quot;currentScript&quot;in document?document.currentScript:function(){for(var t=document.getElementsByTagName(&quot;script&quot;),e=t.length;e--;)if(t[e].getAttribute(&quot;cf-hash&quot;))return t[e]}();if(t&amp;&amp;t.previousSibling){var e,r,n,i,c=t.previousSibling,a=c.getAttribute(&quot;data-cfemail&quot;);if(a){for(e=&quot;&quot;,r=parseInt(a.substr(0,2),16),n=2;a.length-n;n+=2)i=parseInt(a.substr(n,2),16)^r,e+=String.fromCharCode(i);e=document.createTextNode(e),c.parentNode.replaceChild(e,c)}}}catch(u){}}();/* ]]&gt; */&lt;/script&gt;\nFormat settings, CABAC           : Yes\nFormat settings, ReFrames        : 2 frames\nCodec ID                         : H264\nDuration                         : 10s 0ms\nBit rate                         : 5 480 Kbps\nWidth                            : 1 280 pixels\nHeight                           : 544 pixels\nDisplay aspect ratio             : 2.35:1\nFrame rate                       : 30.000 fps\nColor space                      : YUV\nChroma subsampling               : 4:2:0\nBit depth                        : 8 bits\nScan type                        : Progressive\nBits/(Pixel*Frame)               : 0.262\nStream size                      : 71.6 MiB (96%)\n\n\nAudio Info ::\nID                               : 1\nFormat                           : MPEG Audio\nFormat version                   : Version 1\nFormat profile                   : Layer 3\nCodec ID                         : 55\nCodec ID/Hint                    : MP3\nDuration                         : 1mn 49s\nBit rate mode                    : Constant\nBit rate                         : 192 Kbps\nChannel(s)                       : 2 channels\nSampling rate                    : 44.1 KHz\nCompression mode                 : Lossy\nStream size                      : 2.51 MiB (3%)","torrent":{"xt":"urn:btih:76f0072337c729b2296a76805e1b59a1820733f5","amp;dn":"Jhoom+Jhoom+Ta+%28Players%29+-+H.264+-+720p+DVDRip+%7E%7E%7EAbhinavRocks+%7B","amp;tr":["udp%3A%2F%2Ftracker.openbittorrent.com%3A80","udp%3A%2F%2Fopen.demonii.com%3A1337","udp%3A%2F%2Ftracker.coppersurfer.tk%3A6969","udp%3A%2F%2Fexodus.desync.com%3A6969"],"infoHash":"76f0072337c729b2296a76805e1b59a1820733f5","infoHashBuffer":{"type":"Buffer","data":[118,240,7,35,55,199,41,178,41,106,118,128,94,27,89,161,130,7,51,245]},"announce":[],"urlList":[]}}